<?xml version="1.0" encoding="utf-8"?>
<!-- Generator: Adobe Illustrator 29.3.1, SVG Export Plug-In . SVG Version: 9.03 Build 55982)  -->
<svg version="1.1" baseProfile="tiny" id="Layer_1" xmlns="http://www.w3.org/2000/svg" xmlns:xlink="http://www.w3.org/1999/xlink"
	 x="0px" y="0px" viewBox="0 0 560.75 291.71" overflow="visible" xml:space="preserve">
<g>
	<path fill="#91278D" d="M411.94,163.75c-4.42-4.15-8.63-5.98-13.73-5.98c-10,0-18.29,8.57-18.29,18.9
		c0,10.13,8.29,18.49,18.36,18.49c5.03,0,9.31-1.84,13.67-5.92v6.26c-4.49,3.06-8.77,4.42-13.67,4.42
		c-12.78,0-23.46-10.61-23.46-23.32c0-12.99,10.67-23.59,23.73-23.59c5.03,0,8.84,1.29,13.39,4.49V163.75z"/>
	<path fill="#91278D" d="M435.06,186.26l-5.44,12.85h-5.51l20.87-47.53l20.4,47.53h-5.58l-5.37-12.85H435.06z M444.92,163.41
		l-7.75,18.15h15.3L444.92,163.41z"/>
	<path fill="#91278D" d="M505.51,199.11h-6.19l-13.67-19.85h-1.29v19.85h-5.1v-45.35h7.34c5.17,0,8.29,0.68,10.88,2.45
		c3.13,2.11,5.03,5.98,5.03,10.27c0,6.87-4.49,11.76-11.42,12.38L505.51,199.11z M487.56,174.77c6.39,0,10-2.99,10-8.29
		c0-2.79-1.22-5.24-3.33-6.53c-1.63-1.02-3.67-1.5-6.87-1.5h-2.99v16.32H487.56z"/>
	<path fill="#91278D" d="M526.05,158.45v13.53h17.88v4.69h-17.88v17.75h18.36v4.69h-23.46v-45.35h23.46v4.69H526.05z"/>
</g>
<g>
	<path fill="#91278D" d="M94.29,116.73L83.97,93.06H40.73l-9.71,23.67l10.77,3.04v2.12H14.18v-1.97l10.77-3.19L68.19,14.17h4.25
		l46.27,102.56l10.77,3.19v1.97H83.51v-2.12L94.29,116.73z M61.82,41.78L42.7,88.21h39.14L61.82,41.78z"/>
	<path fill="#91278D" d="M141.93,20.85l-9.25-3.19v-1.97h43.69c16.84,0,30.5,4.85,40.66,14.41c10.17,9.71,15.17,22.91,15.17,39.45
		s-5.01,29.43-15.17,38.54c-10.17,9.25-23.67,13.81-40.66,13.81h-43.69v-1.97l9.25-3.19V20.85z M164.08,20.39v96.8h10.47
		c24.73,0,33.83-15.78,33.83-47.94c0-16.54-2.43-28.83-7.13-36.87s-13.65-11.99-26.7-11.99H164.08z"/>
	<path fill="#91278D" d="M256.02,20.85l-9.25-3.19v-1.97h81.62v32.16h-2.43c-3.03-10.47-6.52-17.6-10.32-21.54
		s-10.01-5.92-18.66-5.92h-18.81v45.82h5.61c6.83,0,11.53-1.37,14.41-4.1c2.88-2.73,5.46-7.59,7.89-14.72h2.43v41.27h-2.43
		c-2.28-6.22-4.55-10.62-6.98-13.2c-2.58-2.58-6.52-3.94-11.99-4.4h-8.95v46.27h19.57c8.95,0,15.32-1.97,19.27-6.07
		c3.94-4.1,7.43-11.23,10.47-21.54h2.43v32.16h-83.14v-1.97l9.25-3.19V20.85z"/>
	<path fill="#91278D" d="M346.76,121.89v-1.97l9.25-3.19V20.85l-9.25-3.19v-1.97h40.66v2.12l-9.25,3.03v96.49h16.23
		c10.17,0,17.6-2.43,22.3-7.43c4.55-4.85,8.19-12.9,10.77-23.97h2.43v35.96H346.76z"/>
	<path fill="#91278D" d="M511.37,116.73l-10.32-23.67h-43.24l-9.71,23.67l10.77,3.04v2.12h-27.61v-1.97l10.77-3.19l43.24-102.56
		h4.25l46.27,102.56l10.77,3.19v1.97H500.6v-2.12L511.37,116.73z M478.91,41.78l-19.12,46.43h39.14L478.91,41.78z"/>
</g>
<g>
	<path fill="#91278D" d="M17.89,153.76h9.31c7.34,0,12.31,1.56,16.66,5.24c5.03,4.21,7.82,10.4,7.82,17.41
		c0,7.14-2.79,13.19-7.96,17.47c-4.49,3.74-9.25,5.23-16.59,5.23h-9.25V153.76z M27.41,194.42c5.58,0,9.59-1.29,12.99-4.15
		c3.94-3.33,6.19-8.29,6.19-13.8c0-5.58-2.24-10.61-6.12-13.87c-3.4-2.86-7.48-4.15-13.05-4.15h-4.42v35.97H27.41z"/>
	<path fill="#91278D" d="M73.58,158.45v13.53h17.88v4.69H73.58v17.75h18.36v4.69H68.48v-45.35h23.46v4.69H73.58z"/>
	<path fill="#91278D" d="M108.8,151.86l35.29,37.05v-35.15h5.1v47.39l-35.29-36.99v34.95h-5.1V151.86z"/>
	<path fill="#91278D" d="M179.52,199.11h-5.1v-40.66h-10.95v-4.69h27.06v4.69h-11.02V199.11z"/>
	<path fill="#91278D" d="M207.61,186.26l-5.44,12.85h-5.51l20.87-47.53l20.4,47.53h-5.58l-5.37-12.85H207.61z M217.46,163.41
		l-7.75,18.15h15.3L217.46,163.41z"/>
	<path fill="#91278D" d="M256.91,194.42h12.44v4.69h-17.54v-45.35h5.1V194.42z"/>
</g>
<path fill="#91278D" d="M325.16,185.23l3.45,15.71c1.87,8.51,8.51,15.15,17.02,17.02l15.71,3.45l-15.71,3.45
	c-8.51,1.87-15.15,8.51-17.02,17.02l-3.45,15.71l-3.45-15.71c-1.87-8.51-8.51-15.15-17.02-17.02l-15.71-3.45l15.71-3.45
	c8.51-1.87,15.15-8.51,17.02-17.02L325.16,185.23z"/>
<path fill="#91278D" d="M364.31,237.62l2.03,9.22c0.96,4.36,4.36,7.76,8.72,8.72l9.22,2.03l-9.22,2.03
	c-4.36,0.96-7.76,4.36-8.72,8.72l-2.03,9.22l-2.03-9.22c-0.96-4.36-4.36-7.76-8.72-8.72l-9.22-2.03l9.22-2.03
	c4.36-0.96,7.76-4.36,8.72-8.72L364.31,237.62z"/>
</svg>
